<svg version="1.1" id="Layer_1" xmlns="http://www.w3.org/2000/svg" x="0" y="0" viewBox="0 0 1000 1000" style="enable-background:new 0 0 1000 1000" xml:space="preserve"><style>.st0{fill:#c2202c}</style><switch><g><g id="XMLID_1_"><path id="XMLID_150_" d="M438.185 547.307c14.84-41.982 17.432-85.22 25.889-95.995 8.457-10.775 42.91-32.489 37.837-81.046s-35.435-83.529-58.431-99.488c-22.996-15.959-65.497-22.151-91.276-6.166-25.779 15.985-65.389 62.905-80.23 214.931-2.045-81.701-2.289-190.545 69.81-249.576s176.853-40.104 213.678 18.699 70.313 145.741 82.266 160.663c11.953 14.923 43.319 40.422 42.445 75.258-.873 34.835 19.903 47.377 25.577 68.546-31.425-11.429-232.92-16.246-267.565-5.826z"/><g id="XMLID_2_"><path id="XMLID_3_" class="st0" d="M273.892 382.968h1.691l5.558-5.558h-6.686a433.84 433.84 0 0 0-.563 5.558z"/><path id="XMLID_4_" class="st0" d="M590.055 383.097h33.467c-.856-1.791-1.734-3.642-2.638-5.558h-36.387l5.558 5.558z"/><path id="XMLID_5_" class="st0" d="M271.549 426.776a798.34 798.34 0 0 0-.08 5.548h6.373c.151-.981.304-1.951.458-2.921l-2.627-2.627h-4.124z"/><path id="XMLID_14_" class="st0" d="M271.976 479.544a928.88 928.88 0 0 1 2.654-23.984l-3.085 3.085c.105 7.123.261 14.106.431 20.899z"/><path id="XMLID_16_" class="st0" d="M277.012 437.872h-5.585a935.037 935.037 0 0 0-.01 5.548h4.806c.259-1.867.522-3.718.789-5.548z"/><path id="XMLID_17_" class="st0" d="M682.212 504.091a66.933 66.933 0 0 1-1.132-5.548h-19.347l-5.548 5.548h26.027z"/><path id="XMLID_18_" class="st0" d="m680.094 480.181-1.718 1.718h1.79a57.322 57.322 0 0 0-.072-1.718z"/><path id="XMLID_19_" class="st0" d="M679.101 472.014c-.048-.243-.108-.482-.159-.724h-.566l.725.724z"/><path id="XMLID_20_" class="st0" d="M672.828 465.742h4.699a69.226 69.226 0 0 0-1.951-5.548h-8.297l5.549 5.548z"/><path id="XMLID_21_" class="st0" d="M661.732 454.646h11.364a88.98 88.98 0 0 0-2.998-5.548h-13.914l5.548 5.548z"/><path id="XMLID_22_" class="st0" d="M680.41 492.996a77.322 77.322 0 0 1-.253-5.548h-7.33l-5.548 5.548h13.131z"/><path id="XMLID_23_" class="st0" d="M271.491 454.516h3.268c.234-1.868.472-3.716.713-5.548h-4.032c.013 1.858.03 3.708.051 5.548z"/><path id="XMLID_24_" class="st0" d="m463.452 543.047.565.565c2.609-.204 5.343-.392 8.204-.565h-8.769z"/><path id="XMLID_25_" class="st0" d="M319.007 300.214a154.182 154.182 0 0 1 3.566-5.558h-28.12a210.75 210.75 0 0 0-2.275 5.558h26.829z"/><path id="XMLID_26_" class="st0" d="M481.308 311.24h9.279l5.548-5.548h-18.484a148.649 148.649 0 0 1 3.657 5.548z"/><path id="XMLID_27_" class="st0" d="M297.686 289.098h28.819a123.723 123.723 0 0 1 4.394-5.558h-27.655l-5.558 5.558z"/><path id="XMLID_28_" class="st0" d="m517.232 212.958-4.453 4.453h11.653a124.524 124.524 0 0 0-7.2-4.453z"/><path id="XMLID_31_" class="st0" d="m667.28 531.832-5.548-5.548h30.121a125.808 125.808 0 0 1-3.129-5.548h-32.539l-5.548-5.548h35.396a71.138 71.138 0 0 1-2.18-5.548h-33.216l-2.774 2.774-2.774-2.774h-66.09l5.548-5.548h54.994l-5.548-5.548h-43.898l5.548-5.548h32.802l-5.548-5.548h-21.706l5.548-5.548h10.61l-5.305-5.305 5.185-5.185H606.6l-5.558-5.558h21.745l5.558-5.558h-32.861l-5.558-5.558h43.977l5.558-5.558h-55.094l-5.558-5.558h66.209l2.844-2.844 2.774 2.774h15.968a126.044 126.044 0 0 0-3.958-5.548h-12.01l5.548-5.548h2.081c-7.744-9.371-15.716-17.108-20.535-23.123-2.764-3.451-6.682-10.759-11.525-20.675h-30.592l5.558 5.558h21.486l-5.558 5.558h-10.37l5.185 5.185-5.315 5.315h10.629l5.558 5.558h-21.745l-5.558 5.558h32.861l5.558 5.558h-43.977l-5.558 5.558h55.093l5.558 5.558h-66.209l-2.779 2.779-2.779-2.779h-66.209l5.558-5.558h55.093l-5.558-5.558h-43.978l5.558-5.558h32.861l-5.558-5.558h-21.745l5.558-5.558h10.63l-5.315-5.315 5.434-5.434h-10.61l-5.548-5.548h21.706l5.548-5.548h-32.802l-5.548-5.548h43.898l5.548-5.548h-54.994l-5.548-5.548h66.089l2.71-2.71 2.909 2.909h39.337a3730.65 3730.65 0 0 1-2.592-5.558h-37.004l5.558-5.558h28.861l-2.583-5.558h-20.72l5.558-5.558h12.575a3595.86 3595.86 0 0 0-2.596-5.558h-4.421l3.01-3.011c-5.343-11.384-11.078-23.41-17.102-35.488h-2.404l-5.548-5.548h5.165a964.723 964.723 0 0 0-2.828-5.548h-2.338l-2.774 2.774-2.774-2.774h-66.09l5.548-5.548h54.994l-5.548-5.548h-43.898l5.548-5.548h32.802l-5.548-5.548H529.42l5.548-5.548h10.61l-5.305-5.305 5.305-5.305h-10.61l-5.548-5.548h21.706l3.427-3.427a93.27 93.27 0 0 0-1.421-2.121h-29.26l-5.548-5.548h30.662a99.507 99.507 0 0 0-4.811-5.548h-31.399l-5.548-5.548h31.377a110.89 110.89 0 0 0-6.525-5.548h-24.852l-2.774 2.774-2.774-2.774h-66.089l5.548-5.548h54.994l-5.548-5.548h-43.898l5.548-5.548h32.802l-5.548-5.548h-21.706l5.457-5.457a161.802 161.802 0 0 0-57.836 3.139l2.337 2.337h-11.065a158.737 158.737 0 0 0-15.563 5.558h32.186l5.558 5.558H374.88l-5.558 5.558h55.093l5.558 5.558h-66.209l-2.779 2.779-2.779-2.779h-7.261a159.73 159.73 0 0 0-7.414 5.558h14.675l-5.558 5.558h-15.719a153.389 153.389 0 0 0-5.919 5.558h16.081l-5.558 5.558h-15.869a156.462 156.462 0 0 0-4.849 5.558h15.16l-5.558 5.558h-10.371l5.185 5.185-5.315 5.315h10.629l5.558 5.558h-21.745l-5.558 5.558h27.097c5.769-5.984 11.3-10.265 16.308-13.37 10.732-6.655 24.363-9.455 38.277-9.318l-4.486-4.486h21.745l5.558-5.558h-32.861l-5.558-5.558h43.978l5.558-5.558h-55.093l-5.558-5.558h66.209l2.844-2.844 2.774 2.774h66.09l-5.548 5.548H441.14l5.548 5.548h43.898l-5.548 5.548h-32.802l5.548 5.548h21.706l-5.548 5.548h-10.61l5.305 5.305-5.305 5.305h10.61l5.548 5.548h-21.706l-5.313 5.313.271.235h32.295l5.548 5.548h-31.742a143.625 143.625 0 0 1 5.441 5.548h31.85l5.548 5.548h-32.501a149.648 149.648 0 0 1 4.438 5.548h28.063l2.774-2.774 2.774 2.774h66.09l-5.548 5.548h-54.994l5.548 5.548h43.898l-5.548 5.548h-32.802l5.548 5.548h21.706l-5.548 5.548h-10.61l5.305 5.305-5.305 5.305h10.61l5.548 5.548h-21.706l-5.548 5.548h32.802l5.548 5.548h-43.898l-5.548 5.548h54.994l5.548 5.548h-66.09l-2.774 2.774-2.774-2.774h-.26c.18 1.334.349 2.676.49 4.032 2.51 24.022-4.657 41.466-13.562 54.274l2.236 2.236h-3.842a101.453 101.453 0 0 1-4.425 5.548h13.815l5.548 5.548h-24.403a229.959 229.959 0 0 1-5.549 5.548h29.952l2.709-2.709 2.909 2.909h65.951l-5.558 5.558h-54.835l5.558 5.558h43.719l-5.558 5.558h-32.603l5.558 5.558h21.487l-5.558 5.558H535.09l5.185 5.185-5.315 5.315h10.629l5.558 5.558h-21.745l-5.558 5.558h32.861l5.558 5.558h-43.977l-5.558 5.558h55.093l5.558 5.558H507.17l-2.779 2.779-2.779-2.779h-52.8c-.42 1.835-.855 3.688-1.305 5.558h54.106l-5.558 5.558h-49.927c-.33 1.292-.668 2.589-1.016 3.892l1.666 1.666h43.719l-5.558 5.558h-32.603l5.558 5.558h21.486l-5.458 5.458c16.784-.959 37.462-1.401 59.548-1.391l-4.067-4.067h21.745l5.558-5.558h-32.861l-5.558-5.558h43.977l5.558-5.558h-55.093l-5.558-5.558h66.209l2.844-2.844 2.774 2.774h66.09l-5.548 5.548h-54.994l5.548 5.548h43.898l-5.548 5.548h-32.802l5.548 5.548h21.706l-5.548 5.548h-10.61l.174.174c45.868 1.894 86.173 5.425 98.84 10.033-2.077-7.751-6.181-14.347-10.504-21.303H667.28zm11.096 11.096-5.548-5.548h21.706l-5.548 5.548h-10.61z"/><path id="XMLID_32_" class="st0" d="M466.134 448.968c-.789.833-1.487 1.616-2.058 2.344-.675.86-1.309 1.948-1.918 3.204h28.429l5.548-5.548h-30.001z"/><path id="XMLID_33_" class="st0" d="m484.939 493.025-5.558-5.558h-21.745l5.558-5.558h10.629l-5.315-5.315 5.435-5.435h-10.61l-5.075-5.075c-1.893 7.321-3.703 16.558-5.845 26.94l32.526.001z"/><path id="XMLID_34_" class="st0" d="m484.607 316.788.157.275.275-.275h-.432z"/><path id="XMLID_35_" class="st0" d="M459.988 460.064a100.56 100.56 0 0 0-1.608 5.548h21.111l5.548-5.548h-25.051z"/><path id="XMLID_36_" class="st0" d="M292.164 300.25c-7.527 19.154-12.43 39.628-15.567 60.486h4.544l5.558 5.558h-10.897c-.25 1.851-.491 3.703-.716 5.558h11.613l2.844-2.844 1.147 1.147c5.892-21.702 12.462-39.168 19.267-53.268h-1.156l-5.558-5.558h9.497a191.49 191.49 0 0 1 3.005-5.558h-18.06l-5.521-5.521z"/><path id="XMLID_37_" class="st0" d="M490.497 498.584h-39.244a822.924 822.924 0 0 1-1.195 5.558h45.997l-5.558-5.558z"/></g><ellipse id="XMLID_52_" cx="479.601" cy="738.223" rx="57.028" ry="38.993"/><ellipse id="XMLID_48_" cx="669.096" cy="738.223" rx="57.028" ry="38.993"/><path id="XMLID_49_" d="M727.326 592.191c-3.437-21.255-13.015-36.2-18.527-43.593-47.198-55.627-208.355-59.13-268.9 0-6.597 6.443-15.09 22.338-18.527 43.593-2.656 16.425-.588 30.075 1.362 38.416 2.605-16.763 4.45-20.75 5.721-20.707 3.575.123 1.367 31.963 12.261 65.389 8.07 24.762 21.443 42.459 30.788 53.018l7.266-19.617c.682 5.592 3.179 19.633 14.531 31.968 6.469 7.03 13.463 10.95 18.164 13.078-1.968-3.141-5.162-9.209-5.812-17.437-.989-12.506 4.551-21.707 6.539-24.703.992 11.507 3.96 28.375 13.078 46.499a125.994 125.994 0 0 0 14.531 22.523c-1.021-12.305-1.231-19.857-.99-24.371.315-5.896 1.493-6.108 1.716-6.144 2.902-.471 5.06 20.753 18.709 39.89 5.28 7.403 10.938 12.613 15.114 15.984 4.176-3.371 9.834-8.581 15.114-15.984 13.648-19.136 15.807-40.36 18.709-39.89.224.036 1.401.248 1.716 6.144.241 4.514.031 12.066-.99 24.371a126.03 126.03 0 0 0 14.531-22.523c9.118-18.124 12.086-34.993 13.078-46.499 1.988 2.996 7.528 12.196 6.539 24.703-.651 8.228-3.844 14.296-5.813 17.437 4.701-2.128 11.694-6.048 18.164-13.078 11.352-12.335 13.849-26.376 14.531-31.968l7.266 19.617c9.345-10.559 22.717-28.256 30.788-53.018 10.894-33.426 8.686-65.266 12.26-65.389 1.271-.044 3.117 3.944 5.722 20.707 1.948-8.341 4.017-21.991 1.361-38.416z" style="fill:#afe0ea"/><ellipse id="XMLID_47_" cx="574.348" cy="522.707" rx="63.333" ry="46.343" style="fill:#d4a476"/></g></g></switch></svg>