<svg xmlns="http://www.w3.org/2000/svg" xmlns:xlink="http://www.w3.org/1999/xlink" viewBox="0 0 1424.042 1318.441"><defs><linearGradient id="a"><stop style="stop-color:#945341;stop-opacity:1" offset="0"/><stop style="stop-color:#945341;stop-opacity:0" offset="1"/></linearGradient><linearGradient xlink:href="#a" id="b" x1="413.728" y1="338.214" x2="185.854" y2="347.97" gradientUnits="userSpaceOnUse"/></defs><g transform="matrix(3.21558 0 0 3.45119 -51.986 -432.26)"><path style="opacity:1;fill:#a66756;fill-opacity:1;stroke:none;stroke-width:3;stroke-linecap:round;stroke-linejoin:round;stroke-miterlimit:4;stroke-dasharray:none;stroke-opacity:1" d="M193.917 125.25c-12.71 12.438-29.929 21.87-36.246 39.474-3.637 11.908-5.86 24.629-3.133 36.996 1.54 7.794 4.07 15.284 7.008 22.631a78.571 71.429 0 0 0-44.553 55.696 118.571 117.143 0 0 0-46.137 84.964 132.857 77.143 0 0 0-54.689 62.264 132.857 77.143 0 0 0 132.857 77.143 132.857 77.143 0 0 0 61.467-8.793 162.857 77.143 0 0 0 85.676 11.65 162.857 77.143 0 0 0 162.857-77.143 162.857 77.143 0 0 0-35.101-47.83 95.714 87.143 0 0 0 .816-10.742 95.714 87.143 0 0 0-94.597-87.092 54.286 72.857 0 0 0-36.819-61.964 35.25 35.25 0 0 0 .053-3.934c.166-12.49-8.42-23.49-19.524-28.463-14.224-7.132-30.356-8.218-45.582-11.885-15.117-4.923-22.4-20.568-27.087-34.535-2.547-5.597-3.873-15.549-7.266-18.437z"/><path d="M193.917 125.25c-12.71 12.438-29.929 21.87-36.246 39.474-3.637 11.908-5.86 24.629-3.133 36.996 1.54 7.794 4.07 15.284 7.008 22.631a78.571 71.429 0 0 0-44.553 55.696 118.571 117.143 0 0 0-46.137 84.964 132.857 77.143 0 0 0-54.689 62.264 132.857 77.143 0 0 0 132.857 77.143 132.857 77.143 0 0 0 61.467-8.793 162.857 77.143 0 0 0 85.676 11.65 162.857 77.143 0 0 0 162.857-77.143 162.857 77.143 0 0 0-35.101-47.83 95.714 87.143 0 0 0 .816-10.742 95.714 87.143 0 0 0-94.597-87.092 54.286 72.857 0 0 0-36.819-61.964 35.25 35.25 0 0 0 .053-3.934c.166-12.49-8.42-23.49-19.524-28.463-14.224-7.132-30.356-8.218-45.582-11.885-15.117-4.923-22.4-20.568-27.087-34.535-2.547-5.597-3.873-15.549-7.266-18.437z" style="opacity:1;fill:url(#b);fill-opacity:1;stroke:none;stroke-width:3;stroke-linecap:round;stroke-linejoin:round;stroke-miterlimit:4;stroke-dasharray:none;stroke-opacity:1"/><ellipse style="opacity:1;fill:#fff;fill-opacity:1;stroke:none;stroke-width:3;stroke-linecap:round;stroke-linejoin:round;stroke-miterlimit:4;stroke-dasharray:none;stroke-opacity:1" cx="185.106" cy="322.575" rx="38.298" ry="46.809"/><ellipse ry="46.809" rx="38.298" cy="320.447" cx="272.34" style="opacity:1;fill:#fff;fill-opacity:1;stroke:none;stroke-width:3;stroke-linecap:round;stroke-linejoin:round;stroke-miterlimit:4;stroke-dasharray:none;stroke-opacity:1"/><ellipse style="opacity:1;fill:#000;fill-opacity:1;stroke:none;stroke-width:3;stroke-linecap:round;stroke-linejoin:round;stroke-miterlimit:4;stroke-dasharray:none;stroke-opacity:1" cx="190.164" cy="319.963" rx="15.957" ry="20.213"/><ellipse ry="20.213" rx="15.957" cy="319.383" cx="264.37" style="opacity:1;fill:#000;fill-opacity:1;stroke:none;stroke-width:3;stroke-linecap:round;stroke-linejoin:round;stroke-miterlimit:4;stroke-dasharray:none;stroke-opacity:1"/><path style="opacity:1;fill:#000;fill-opacity:1;stroke:none;stroke-width:3;stroke-linecap:round;stroke-linejoin:round;stroke-miterlimit:4;stroke-dasharray:none;stroke-opacity:1" d="M353.192 393.01a118.085 63.608 0 0 1-60.588 55.558 118.085 63.608 0 0 1-119.589-1.454 118.085 63.608 0 0 1-55.874-56.974l117.965 2.87z"/><path style="opacity:1;fill:#d74d83;fill-opacity:1;stroke:none;stroke-width:3;stroke-linecap:round;stroke-linejoin:round;stroke-miterlimit:4;stroke-dasharray:none;stroke-opacity:1" d="M237.047 409.535a81.489 30.928 0 0 0-43.545 4.62 81.489 30.928 0 0 0-38.342 24.156l-.271-.004a80.563 19.648 0 0 0 .006 1.501 81.489 30.928 0 0 0 .048 2.05l.663-.012a80.563 19.648 0 0 0 37.402 14.058 80.563 19.648 0 0 0 81.59.45 80.563 19.648 0 0 0 41.076-15.891h2.164a81.489 30.928 0 0 0-41.809-27.016 81.489 30.928 0 0 0-38.982-3.912z"/></g></svg>