<svg xmlns="http://www.w3.org/2000/svg" version="1.0" width="12" height="7"><path d="M206.05 542.893c-1.718-.09-3.06-1.615-3.598-3.19-.326-.926-.147-2.313.94-2.573 1.574-.268 2.88 1.07 3.613 2.35.521.949.81 2.444-.168 3.196a1.4 1.4 0 0 1-.788.217zm2.734-5.403c-1.934-1.175-4.378-1.266-6.496-.609-1.342.47-2.876 1.467-2.889 3.091 0 1.592 1.48 2.585 2.79 3.058 2.075.678 4.469.619 6.406-.463 1.096-.584 2.068-1.792 1.739-3.13-.181-.862-.841-1.506-1.55-1.947z" style="fill:#000;fill-opacity:1" transform="translate(-199.399 -536.473)"/></svg>